<svg width="80" height="81" viewBox="0 0 80 81" fill="none" xmlns="http://www.w3.org/2000/svg">
<path d="M29.8727 0.765289C25.1585 1.62764 21.7667 2.9499 19.9845 4.6171C16.8226 7.60655 19.5821 14.1029 25.7334 18.0122C26.5958 18.5871 27.2282 19.1045 27.1707 19.2195C26.9407 19.4494 17.5699 16.8049 17.1675 16.4025C16.995 16.23 16.5351 14.3903 16.1902 12.3207C15.8452 10.1361 15.2703 8.52639 14.8679 8.52639C14.523 8.52639 12.6258 10.1936 10.6712 12.2632C4.57728 18.817 0.840454 28.3603 0.840454 37.3287C0.840454 43.3076 2.04774 46.2396 5.43962 48.7116C7.68171 50.3213 9.9813 51.0112 18.6622 52.6209C21.0193 53.0233 21.3067 53.3108 22.0541 55.3804C22.6865 57.2776 22.6865 59.0022 22.1116 65.4986C21.2493 75.0993 21.5942 78.2613 23.6063 79.1811C25.9059 80.2159 27.7456 79.9859 28.148 78.6062C28.378 77.9163 28.378 76.0192 28.148 74.2945C27.8031 71.19 28.6079 67.1658 29.5852 67.1658C30.4476 67.1658 30.85 68.3156 32.1148 73.4321L33.3221 78.3762L35.3342 78.5487L37.4038 78.7212L38.0362 73.4321C38.7836 67.9131 39.2435 66.7633 40.7382 67.3382C41.4281 67.6257 41.6581 68.603 41.6581 71.65C41.6581 73.8346 41.8305 75.7317 42.003 75.9617C42.6354 76.5366 45.5099 74.7544 46.7171 73.0297C47.3495 72.1674 47.9819 70.6151 48.0969 69.5803C48.2694 67.7407 48.3269 67.7407 49.5916 68.603C50.7414 69.4653 50.8564 69.9828 50.8564 74.9843C50.8564 81.0208 50.7989 80.9633 55.4556 80.0434L57.2952 79.641L57.1802 69.2354C56.8928 54.2881 56.9503 54.1731 58.5025 53.7132C59.1924 53.4832 62.5268 52.6209 65.9187 51.7011C73.2773 49.7464 76.7842 47.8493 78.1065 45.0898C80.2336 40.5481 78.6814 29.4526 74.7146 21.3466C72.6449 17.2073 67.4709 10.826 66.0911 10.826C65.6887 10.826 63.7341 11.5733 61.7219 12.4932C57.6402 14.3328 53.2135 15.4251 55.1106 14.1604C63.5041 8.41141 63.9065 7.894 61.7794 6.11182C55.8005 1.11023 41.2556 -1.36182 29.8727 0.765289ZM23.2039 28.0728C27.4006 29.97 33.0346 37.0412 33.0346 40.3756C33.0346 41.9853 31.9423 43.5375 30.1601 44.4574C28.148 45.4922 16.4776 45.6647 12.5683 44.6873C7.2218 43.3076 5.5546 38.306 8.83151 33.1319C12.3959 27.4979 17.7424 25.6008 23.2039 28.0728ZM65.5162 28.0154C68.3332 29.2801 71.3802 32.3271 72.4725 34.7991C72.9324 35.8339 73.2773 37.8461 73.2773 39.2833C73.2773 44.2274 70.5753 45.3197 58.56 45.3197C50.6264 45.3197 50.454 45.3197 49.0742 43.825C44.475 38.8809 52.811 26.8656 60.9171 26.923C62.1818 26.923 64.2515 27.4405 65.5162 28.0154ZM38.2662 49.6314C38.4961 53.2533 38.8986 56.5302 39.1285 56.9326C39.8759 58.1399 40.6232 55.0355 40.9107 49.1715C41.0832 46.1246 41.4281 43.595 41.6581 43.595C42.3479 43.595 45.1074 50.2063 45.7398 53.5407C46.0848 55.3229 46.1997 57.8525 46.0273 59.2897L45.6248 61.8192L39.7034 61.7617L33.7245 61.7043L33.3796 59.0597C32.8622 55.2079 33.9545 48.5966 35.6791 45.2622C36.484 43.6525 37.2889 42.5027 37.4613 42.6752C37.6913 42.8477 38.0362 46.0096 38.2662 49.6314Z" fill="black"/>
</svg>
