<svg width="48" height="75" viewBox="0 0 48 75" fill="none" xmlns="http://www.w3.org/2000/svg">
    <path
        d="M26.6844 3.65356C23.005 7.04544 12.5994 19.5782 8.92009 25.0972C0.354146 37.9748 -1.54301 51.3124 3.63105 62.2355C10.5873 76.8378 30.6512 79.2524 41.9191 66.8346C46.3458 61.948 47.6106 58.4986 47.5531 50.9675C47.5531 43.3214 46.6908 41.3667 38.9871 31.1336C32.5483 22.5676 30.9961 19.5782 30.0188 13.7142C29.3864 9.74745 29.7888 4.34343 30.9386 1.35397C31.686 -0.428207 30.3062 0.31916 26.6844 3.65356ZM40.8268 41.5967C41.9191 43.9538 42.494 46.0234 42.609 48.7829C42.8389 52.2898 42.724 52.7497 41.4017 54.0719C39.677 55.7966 37.8374 55.9691 35.9402 54.6468C34.3305 53.497 34.273 50.91 35.8252 45.3335C36.4576 43.0914 36.975 40.2744 36.975 39.1821C36.975 37.3425 37.09 37.17 38.0673 37.7449C38.6997 38.0323 39.907 39.8145 40.8268 41.5967Z"
        fill="white" />
</svg>