<svg width="85" height="86" viewBox="0 0 85 86" fill="none" xmlns="http://www.w3.org/2000/svg">
<path d="M35.4889 1.14508C31.1772 2.46735 28.1302 5.22684 26.1756 9.65354L25.0833 12.1256L23.3586 10.8608C21.289 9.30862 16.5748 9.19363 13.8153 10.5734C10.021 12.5855 8.00888 16.8397 9.0437 20.749C9.5611 22.7612 9.5611 23.3361 8.81374 24.1409C8.29633 24.7158 7.77893 25.9231 7.54897 26.8429C7.31901 28.1077 6.68662 28.7401 5.07692 29.43C2.20244 30.6372 0.765196 33.6267 1.11013 37.536C1.2826 39.0307 1.8575 40.8129 2.3749 41.3878C3.35223 42.4801 3.35223 42.6526 1.91499 45.0671C-0.844512 49.7238 0.30528 55.1853 4.617 58.0023C6.51415 59.2671 7.60646 59.5545 10.5384 59.5545C14.5627 59.5545 16.5173 58.5197 18.5295 55.3578C19.8517 53.2881 20.4841 53.1732 24.5084 54.4954C30.3148 56.3351 33.7642 61.5666 33.7642 68.5804C33.7642 72.0297 33.1318 72.4322 25.5432 74.4443C22.3813 75.2492 19.0469 76.5139 18.0696 77.2613L16.2299 78.5261L23.1286 78.8135C26.923 78.986 30.3723 79.3309 30.7173 79.5609C31.1197 79.7908 31.6946 81.0556 32.0395 82.2629C32.7294 84.9074 33.3043 85.0799 34.5116 83.1827C35.6614 81.458 37.1561 79.9633 37.7885 79.9633C38.0759 79.9633 38.5359 80.8257 38.9383 81.918C39.2832 82.9528 40.0306 84.275 40.663 84.8499C41.6978 85.7698 41.8128 85.7123 42.9626 83.4127C43.5949 82.1479 44.5148 80.9406 44.9747 80.7682C45.4346 80.5382 46.8144 81.1706 47.9641 82.1479C52.3334 85.5398 53.7131 85.8847 54.0006 83.5852L54.173 81.9754H59.2896C62.6815 81.9754 64.4637 81.7455 64.6361 81.2856C64.7511 80.9406 64.3487 80.4807 63.7163 80.2508C61.6467 79.6184 62.394 78.8135 65.096 78.8135C66.5333 78.8135 67.6831 78.5261 67.6831 78.2386C67.6831 77.3763 65.096 76.5139 62.509 76.5139C58.4847 76.5139 53.7131 74.9617 52.0459 73.0646C50.5512 71.4549 50.4362 70.9374 50.4362 66.8557C50.4362 59.9569 52.2184 55.0128 55.2078 53.4606C56.7601 52.5983 65.326 50.9886 68.5454 50.9886C70.9025 50.9311 71.9373 51.276 74.1219 52.8282C77.0539 54.8404 78.951 55.1278 81.4806 53.8056C84.5275 52.1958 85.1599 46.7343 82.5729 43.9748C81.5956 42.94 81.4806 42.4801 81.998 41.5603C82.3429 40.8704 82.6304 38.9157 82.6304 37.0761C82.6304 32.9368 80.9057 29.3725 77.6288 26.613C75.6166 24.9458 75.3292 24.3709 75.7891 23.5085C76.6515 21.9563 75.2717 19.4843 72.8571 18.3345C71.4774 17.6446 70.615 16.6098 69.9827 14.9426C67.5681 8.79121 63.1989 6.03171 56.5301 6.54911C52.5058 6.83656 52.4483 6.77907 49.8613 4.59446C48.4241 3.38718 46.2969 2.00744 45.1472 1.54752C42.9051 0.570198 37.961 0.39772 35.4889 1.14508ZM39.8581 30.1773C40.0306 30.6372 40.0881 31.8445 39.9731 32.8793L39.8006 34.7765L38.2484 33.3393C37.4436 32.5919 36.5812 31.3846 36.3512 30.6372C36.0063 29.5449 36.1788 29.3725 37.7885 29.3725C38.7658 29.3725 39.6856 29.7174 39.8581 30.1773ZM55.2078 33.4542C55.1503 35.1214 52.1034 39.1457 50.8961 39.1457C50.6662 39.1457 50.4362 36.9611 50.4362 34.2591V29.43L52.9083 30.5223C55.0354 31.4996 55.3228 31.8445 55.2078 33.4542ZM30.5448 36.3287C31.9246 37.9959 32.5569 39.5481 31.6371 38.9732C31.3497 38.8008 29.6825 38.3983 27.9003 37.9959C26.0606 37.651 24.5659 37.1336 24.5659 36.9036C24.5659 36.4437 27.8428 34.604 28.7051 34.5465C28.8776 34.5465 29.7399 35.3514 30.5448 36.3287ZM61.0718 44.4347C61.9341 45.757 61.9341 45.757 58.9447 46.6768C57.2775 47.1942 54.9204 47.9991 53.7706 48.5165C52.5633 49.0339 51.586 49.2064 51.586 48.9189C51.586 48.1141 58.1973 43.2275 59.4621 43.2275C59.807 43.17 60.5544 43.7449 61.0718 44.4347ZM30.0274 45.8145C31.0622 46.2744 32.327 47.1368 32.8444 47.7117C33.9942 48.9764 35.029 52.2533 34.3966 52.6558C34.1092 52.7707 32.4994 51.9084 30.8323 50.7011C26.7505 47.8266 25.2558 47.0793 22.8412 46.6194C20.8291 46.2169 20.8291 46.2169 22.2663 45.5845C24.3934 44.6647 27.8428 44.7797 30.0274 45.8145Z" fill="black"/>
</svg>
