<svg width="68" height="76" viewBox="0 0 68 76" fill="none" xmlns="http://www.w3.org/2000/svg">
<path d="M20.4617 0.308121C14.1001 0.901146 13.1836 1.65591 18.1974 2.14111C24.8825 2.73414 29.4649 3.86629 31.4058 5.37581C34.8022 7.96356 33.1848 9.63483 26.7694 10.2279L22.726 10.6591L25.4216 11.6296C29.411 13.0313 31.2979 12.8695 35.9882 10.767C38.8995 9.41918 40.6246 8.93398 41.5411 9.20353C44.7758 10.0122 47.6331 15.1338 47.094 19.1772C46.9323 20.3632 46.6627 21.4954 46.5549 21.6571C46.0158 22.1962 44.075 20.6867 42.9428 18.8537C41.3255 16.2659 40.8403 16.4816 41.3794 19.5006C42.2959 24.2988 45.3689 27.4257 51.6765 30.0673C54.2104 31.0916 54.3182 31.2534 53.9947 32.8168C52.8626 38.5314 50.2209 42.7905 48.7653 41.3348C48.0105 40.5801 47.8488 37.0219 48.4957 34.0568C48.927 32.116 48.8731 32.0081 47.8488 32.6012C45.9619 33.5716 45.4228 35.3507 45.0454 41.7661C44.668 48.8286 44.1289 50.2842 40.8403 53.2493C38.9534 54.9745 38.2525 55.244 36.0421 55.244C32.484 55.244 30.9745 54.1119 31.1901 51.578C31.2979 49.9607 31.7831 49.3138 33.7779 47.8581C38.6299 44.3539 39.9238 43.06 41.1637 40.3644C42.4576 37.4532 43.8593 31.6847 43.3202 31.1995C43.1585 31.0377 41.4872 31.7925 39.6003 32.8707C37.7673 34.0029 35.0178 35.3507 33.5083 35.9976C30.2736 37.2915 24.6129 37.5071 22.0251 36.4289C19.4374 35.3507 13.3454 35.9437 9.73329 37.7228C-3.85243 44.3539 -3.04376 67.5898 11.0811 74.4905C13.6688 75.7844 14.7471 76 18.6826 76C21.2165 75.9461 24.1277 75.8922 25.152 75.7844C26.1763 75.6765 29.5728 75.3531 32.6996 75.0835C39.7621 74.4366 44.4524 73.4122 47.4175 71.8488L49.6818 70.6088L43.7515 70.3393C37.6056 70.0697 36.4734 69.7463 36.4734 68.3985C36.4734 67.0507 40.8403 65.5412 47.9027 64.4629C51.6226 63.8699 55.5581 63.169 56.7981 62.8456C59.8172 62.0369 63.1058 59.5031 64.7231 56.7536C66.3944 53.8423 67.9578 49.9068 67.5804 49.5294C67.4187 49.3677 66.0709 50.1763 64.5614 51.3085C60.7876 54.2197 52.6469 57.2927 52.6469 55.891C52.6469 55.6214 54.8034 53.1415 57.3911 50.3381C63.0519 44.2461 65.1544 41.3348 66.3405 37.8306C68.0656 32.709 67.203 24.9457 64.184 18.9615C62.6206 15.9425 59.1163 10.8748 58.7928 11.1983C58.6311 11.3061 59.1702 12.7617 59.925 14.379C61.4345 17.6677 62.1354 21.5493 61.5962 23.6518C61.111 25.7005 60.4641 25.377 59.7093 22.7353C57.445 15.1338 50.6522 6.83142 44.0211 3.65063C37.6056 0.523766 29.6267 -0.608376 20.4617 0.308121Z" fill="black"/>
<path d="M8.70898 5.7532C5.04299 7.6401 1.21527 11.7913 0.352685 14.8103C-0.240343 16.8051 0.137039 16.859 3.10218 14.8103C6.06731 12.8156 6.82208 12.7617 6.82208 14.6486C6.82208 15.5112 7.03772 16.5355 7.30728 16.9129C7.73857 17.5598 7.90031 17.3981 8.16987 16.3199C8.65507 14.3251 11.0811 12.2226 14.1541 11.0365C16.634 10.12 16.7957 9.90439 16.6879 8.23313C16.5262 4.72888 12.8602 3.59673 8.70898 5.7532Z" fill="black"/>
<path d="M30.8127 16.4277C28.3328 18.3685 28.0632 18.4224 25.5833 16.6972C24.505 15.9425 23.1572 15.3495 22.5642 15.3495C21.7016 15.3495 21.8634 15.7268 23.4807 17.5598C28.3328 23.0588 28.7641 23.4362 30.4892 23.4362C35.2874 23.4362 38.7377 18.692 35.9343 15.8886C34.4248 14.379 33.1848 14.5408 30.8127 16.4277Z" fill="black"/>
</svg>
