<svg width="89" height="89" viewBox="0 0 89 89" fill="none" xmlns="http://www.w3.org/2000/svg">
<path d="M45.04 3.58384C39.5784 7.26318 37.6238 9.04535 36.244 11.7474L35.1517 13.7595L36.589 14.7368C39.061 16.3465 40.0384 17.6113 40.0384 19.106C40.0384 21.5206 38.3712 23.9926 36.1866 24.97C33.9445 25.8898 33.9445 25.8898 32.3347 22.8429C30.3801 19.336 29.5178 19.0485 23.5963 20.2558C21.1243 20.7732 19.7445 19.221 18.4798 14.3344C17.9049 12.2073 17.33 10.2526 17.1 9.90769C16.7551 9.27531 14.2255 21.1182 14.168 23.7627C14.168 24.74 14.4555 26.4072 14.8004 27.3845C15.3753 28.9942 15.7203 29.2242 16.9275 28.9942C19.1121 28.5918 22.0441 29.6266 23.3664 31.2938C24.7461 33.076 24.9186 36.4104 23.6538 38.1926C22.7915 39.3999 22.734 39.3999 19.8595 38.48C16.4676 37.3877 15.8352 37.6177 13.2482 41.297C10.9486 44.6314 9.56887 44.7464 4.50978 42.1594C-0.0893826 39.7448 -0.836747 39.5723 0.772961 41.3545C1.40535 42.1019 3.01506 44.5739 4.39481 46.816C5.71707 49.1156 7.7292 51.7601 8.76401 52.7374C11.5235 55.152 13.4207 55.037 16.1802 52.1625C18.9972 49.2881 21.5267 49.0006 23.2514 51.4152C24.6886 53.4848 25.3785 55.6119 24.5737 55.6119C24.2287 55.6119 23.0214 56.4168 21.8716 57.4516C19.802 59.2913 19.802 59.3487 20.147 62.6831C20.4344 65.6726 20.3194 66.19 19.1696 67.3398C18.4223 68.0872 16.2952 69.2369 14.398 69.9268C12.5583 70.6167 10.4887 71.3641 9.91381 71.594C9.10895 71.939 10.5462 72.3414 14.628 73.0313C21.4117 74.1811 24.8036 74.2385 27.3332 73.3762C29.2303 72.6863 29.3453 72.3989 29.1153 68.0872C29.0004 65.4426 29.0578 65.3277 31.1275 64.4653C33.3696 63.5455 36.0716 63.7754 37.1064 65.0402C37.5663 65.5576 37.5088 66.305 36.8189 67.6272C35.5542 70.2143 36.1291 71.8815 39.4635 75.1009C42.9703 78.4928 43.0278 79.4701 40.3258 84.5867C39.2335 86.7138 38.3137 88.496 38.3137 88.6684C38.3137 89.2433 46.7646 83.5519 48.8343 81.5397C50.6739 79.8725 53.261 75.9632 53.261 74.9859C53.261 74.8134 52.2261 74.0661 50.9614 73.2037C49.0067 71.939 48.6618 71.3641 48.6618 69.7544C48.6618 67.2823 51.0764 64.2354 53.031 64.2354C54.0083 64.2354 54.8132 64.9252 55.848 66.5349C57.8601 69.6969 59.4698 70.3867 62.5168 69.4094C66.2536 68.1446 67.5184 69.2369 69.588 75.1009C70.6228 78.0903 71.4277 79.5851 71.6576 79.1252C72.405 77.6879 73.4973 67.4548 73.2673 63.6605C73.1524 60.671 72.9224 59.9811 72.2325 60.1536C68.7831 61.0734 65.1613 59.8087 63.839 57.2216C62.7467 55.152 62.8042 54.2897 64.184 52.6225C65.2188 51.2427 65.4488 51.1852 68.3232 51.7026C72.2325 52.3925 74.2447 51.6451 74.8195 49.4605C74.992 48.5982 75.4519 47.5059 75.7969 47.1609C76.8892 45.7812 80.626 46.2986 84.5353 48.3682C86.6049 49.4605 88.3296 50.2654 88.3296 50.1504C88.3296 49.9204 86.03 46.0112 82.9831 41.1245C80.741 37.4452 78.3264 35.4906 76.0843 35.4906C73.8997 35.4906 73.3823 35.8355 72.0601 37.9626C70.1629 40.8946 67.4609 40.9521 65.2188 38.1351C63.7816 36.4104 63.954 35.7205 66.1961 34.3408C69.1856 32.5011 70.1629 30.259 69.703 26.1772C69.358 22.9003 69.4155 22.7854 71.1977 21.6931C72.175 21.1182 74.3021 20.3133 75.9119 19.9109C80.626 18.8186 80.741 18.4736 76.7742 17.7263C71.0827 16.634 61.7119 16.2316 60.3322 17.0364C59.2399 17.5538 59.1824 17.8988 59.6423 19.5085C60.0447 20.8882 59.9297 21.808 59.1249 23.3603C58.32 25.1424 57.8026 25.4299 55.9055 25.6024C54.2383 25.7748 53.3759 25.4874 52.3411 24.51C51.4213 23.6477 51.1338 23.0153 51.5363 22.6129C51.8237 22.3254 52.1112 21.0607 52.1112 19.9109C52.1112 18.2437 51.5363 17.0939 49.2367 14.2194C47.512 12.0348 46.3622 10.0227 46.3622 9.16033C46.3622 8.35548 47.282 6.05589 48.3743 4.04376C49.5241 2.08911 50.214 0.421921 49.9841 0.479408C49.7541 0.479408 47.512 1.85915 45.04 3.58384ZM49.2367 26.6372C56.2504 28.1894 61.0795 32.846 62.8042 39.5723C64.6439 46.816 62.5743 53.8872 57.2277 58.7164C53.6634 61.9358 49.6966 63.3155 44.3501 63.3155C36.1866 63.3155 31.185 60.2111 27.5631 52.8524C25.551 48.8856 25.3785 48.0808 25.3785 43.8265C25.436 38.1351 26.2983 35.4331 29.2878 32.1562C32.1048 29.1667 35.1517 27.4995 39.4635 26.5222C43.7177 25.5449 44.6375 25.6024 49.2367 26.6372Z" fill="white"/>
<path d="M38.748 28.5329C33.344 30.43 29.5496 34.7418 27.8825 40.8931C27.0776 43.8826 27.0201 45.0899 27.5375 47.8494C29.0897 56.3578 36.1035 61.3594 45.7042 60.727C55.305 60.0947 61.5139 53.8283 61.5139 44.7449C61.5139 38.4211 58.1795 32.7296 52.488 29.3952C49.0386 27.3831 43.0022 26.9807 38.748 28.5329Z" fill="white"/>
</svg>
