<svg width="69" height="80" viewBox="0 0 69 80" fill="none" xmlns="http://www.w3.org/2000/svg">
<path d="M33.8429 0.202126C33.4938 0.386944 33.4733 0.961945 33.4733 7.45123V14.5155L31.892 14.7414C29.8179 15.07 16.901 16.9593 14.334 17.3289C12.4652 17.5959 12.1572 17.7191 9.95988 18.9923C8.6456 19.7316 7.61881 20.3887 7.65988 20.4503C7.72149 20.4914 8.95363 20.3477 10.3911 20.1218C11.8492 19.8959 17.517 19.0539 23.0001 18.253C28.4831 17.4727 33.1652 16.7744 33.4117 16.7128C33.9045 16.5896 33.8224 16.4459 38.5045 24.6191C39.8394 26.9396 42.3242 31.2316 44.0081 34.1682C45.692 37.1048 48.1358 41.3146 49.3885 43.5325C52.4483 48.8512 52.1813 48.4611 52.7563 48.3995C53.0849 48.3584 53.3313 48.112 53.5367 47.5986L53.8242 46.8593L51.4831 42.7727C50.1894 40.5137 48.4233 37.4334 47.5402 35.9137C46.6572 34.3941 45.3429 32.1146 44.6447 30.8825C43.926 29.6298 41.8313 25.995 39.9831 22.7709C38.1144 19.5468 36.6152 16.9182 36.6358 16.8977C36.6358 16.8771 38.4224 17.1441 40.5581 17.4521C47.2322 18.4584 58.6706 20.1218 62.2438 20.6146C64.1126 20.8816 65.8992 21.1691 66.1867 21.2307L66.7411 21.3745V37.9468V54.4986L67.6652 55.0736C68.1786 55.3816 68.692 55.628 68.7947 55.628C68.9179 55.628 69.0001 48.995 69.0001 37.7003V19.7521L68.5483 19.5262C68.1581 19.3209 59.3483 17.9861 41.4822 15.3986C39.9626 15.1727 37.9911 14.8852 37.1286 14.7414L35.5269 14.5155V8.78606C35.5269 5.62355 35.5474 3.05659 35.5885 3.05659C35.6295 3.05659 37.1286 3.89855 38.9152 4.94588C40.7224 5.97266 43.351 7.47177 44.7679 8.2932C46.1849 9.09409 48.5465 10.4494 50.0045 11.3119C51.4831 12.1539 53.5983 13.3861 54.7277 14.0432C55.8572 14.6798 56.884 15.2959 56.9867 15.378C57.2126 15.5628 62.8188 16.4869 62.942 16.3637C62.9831 16.3227 62.0179 15.7271 60.8269 15.0289C59.6152 14.3512 56.2679 12.4209 53.3929 10.7575C38.7304 2.29677 36.0813 0.756588 35.4242 0.345875C34.726 -0.0648384 34.3563 -0.105911 33.8429 0.202126Z" fill="#7327C8"/>
<path d="M30.7009 2.00923C30.5777 2.11191 28.4214 3.38512 25.875 4.84315C8.15268 15.0083 0 19.7932 0 20.0601C0 20.3682 1.27321 23.7155 4.20982 31.1905C5.03125 33.2851 6.42768 36.8378 7.29018 39.0967C8.15268 41.3557 9.54911 44.9494 10.3911 47.0646C11.233 49.2003 11.9107 50.9869 11.9107 51.0691C11.9107 51.1512 11.3152 51.5208 10.5759 51.8905C9.85715 52.2807 7.74197 53.4101 5.87322 54.4164C4.00447 55.4226 2.42321 56.2441 2.36161 56.2441C2.3 56.2441 2.25893 50.7816 2.25893 44.0869V31.9298L1.29375 29.4655C0.780357 28.0896 0.266964 26.8985 0.164286 26.7753C0.0821429 26.6726 0 33.9833 0 43.0396C0 57.6816 0.0410714 59.5092 0.308036 59.6119C0.492857 59.6735 1.725 59.1396 3.24464 58.3182C4.68214 57.5378 7.33125 56.1003 9.1384 55.1351C10.9455 54.1494 12.6089 53.328 12.8143 53.3075C13.1223 53.2664 14.8268 55.2789 19.6116 61.2753C23.1232 65.67 26.183 69.4485 26.4089 69.6744C26.8197 70.0441 31.4197 72.7137 31.4197 72.57C31.4197 72.5289 27.6822 67.8262 23.1027 62.0967C18.5232 56.3878 14.7857 51.603 14.7857 51.5003C14.7857 51.3976 15.4018 50.2887 16.1411 49.0155C17.7429 46.3048 18.9955 44.1485 21.4598 39.9182C22.4661 38.2137 24.3554 34.9896 25.6697 32.7307C27.0045 30.4717 28.2777 28.2949 28.5036 27.9048C29.2429 26.611 32.3848 21.2512 32.8366 20.4708C33.2268 19.8342 33.2473 19.6494 33.042 19.3003C32.8366 18.9923 32.6313 18.9307 32.1589 19.0128C31.8098 19.0744 31.3786 19.1976 31.2143 19.3003C31.05 19.3824 29.7768 21.3744 28.4009 23.736C27.025 26.0771 24.3759 30.636 22.4866 33.8601C18.2973 40.9655 17.1884 42.8958 15.3607 46.0789C13.8821 48.6458 13.3482 49.3851 13.3482 48.8717C13.3482 48.7075 12.8964 47.4137 12.342 45.9967C11.767 44.5798 10.7196 41.8896 9.98036 40.0208C9.24107 38.1521 7.29018 33.1619 5.64732 28.9316C4.00447 24.7012 2.60804 21.128 2.54643 21.0253C2.50536 20.9021 3.14197 20.4503 3.96339 19.978C4.76429 19.5262 7.02322 18.2324 8.93304 17.1235C16.2027 12.9342 17.5375 12.1539 26.2857 7.12262L31.1116 4.32977L31.1732 3.07709C31.2348 1.86548 31.1116 1.61905 30.7009 2.00923Z" fill="#7327C8"/>
<path d="M60.4983 35.8316C58.2394 41.4584 56.0216 47.0441 55.5287 48.2351L54.6457 50.3914L36.1635 50.453C17.743 50.4941 17.6814 50.4941 17.4555 50.9253C17.2707 51.2744 17.3117 51.4593 17.7635 52.0548L18.2974 52.753L35.6707 52.7941L53.0439 52.8557L50.9287 55.5253C49.7582 56.9834 48.1358 59.0164 47.3349 60.0432C46.5135 61.0494 44.4805 63.6369 42.8171 65.7932C35.2805 75.4039 34.2742 76.6155 33.9251 76.4718C33.7403 76.4102 32.7546 75.8557 31.7278 75.2602C30.7215 74.6646 28.5448 73.4119 26.9019 72.4673C22.1171 69.695 18.7492 67.7646 16.2233 66.3066C14.9296 65.5468 12.5269 64.1709 10.884 63.2262C9.24119 62.2816 7.24923 61.1316 6.44833 60.6593L4.9903 59.7968L3.79923 60.3512L2.60815 60.9057L3.10101 61.2343C3.36798 61.3985 6.59208 63.2673 10.268 65.403C13.9439 67.5182 18.1537 69.9414 19.6117 70.7834C21.0903 71.6253 23.1233 72.8164 24.1296 73.3914C25.1564 73.9869 27.0046 75.0343 28.2367 75.753C29.4894 76.4512 31.3582 77.5396 32.4055 78.1557C33.7814 78.9771 34.418 79.2441 34.7671 79.1619C35.0135 79.1003 36.0198 78.0119 37.0671 76.6566C38.9769 74.1923 41.0716 71.5227 46.0001 65.2798C47.5608 63.3084 50.3126 59.7968 52.1403 57.4762C53.968 55.1557 55.5287 53.2459 55.6108 53.2048C55.7135 53.1843 56.9251 53.8209 58.3216 54.6423C59.7385 55.4432 61.9358 56.6959 63.2091 57.4352C65.1189 58.5235 65.4885 58.811 65.2626 59.0164C65.1189 59.1602 63.1064 60.3512 60.7858 61.686C56.2269 64.3146 54.2555 65.4441 50.3126 67.7441C48.8957 68.545 46.8626 69.736 45.7537 70.3521C43.9055 71.3994 43.6796 71.6048 42.0162 73.72C41.0305 74.9521 40.2707 75.9584 40.3323 75.9584C40.4144 75.9584 42.0573 75.0137 58.3832 65.5878C68.9385 59.4887 69.0207 59.4477 68.9591 58.8316C68.8974 58.236 68.5278 57.9896 62.9421 54.7655C59.6769 52.8762 56.9251 51.295 56.843 51.2744C56.7608 51.2334 58.4858 46.695 60.7037 41.1914L64.7082 31.17L64.6466 28.3771L64.5849 25.5637L60.4983 35.8316Z" fill="#7327C8"/>
<path d="M30.2492 35.195C29.4893 35.5236 29.2224 35.9548 29.0375 37.1253L28.8938 37.9673H29.9411H30.9884L31.05 37.1048C31.0911 36.4682 31.2143 36.2012 31.4813 36.1602C31.6661 36.1191 31.892 36.2423 31.9536 36.4066C32.2 37.0432 31.8099 38.1316 30.5161 40.3905C29.7974 41.6432 29.1608 42.9575 29.0992 43.3066L28.9759 43.9227H31.4197H33.884V43.3066V42.6905H32.6518H31.3992L32.2 41.4994C34.5411 38.0494 34.7259 35.9959 32.734 35.1744C31.8715 34.8253 31.0911 34.8253 30.2492 35.195Z" fill="#7327C8"/>
<path d="M35.9374 35.3387C35.5472 35.6057 35.1776 36.0369 35.0955 36.3244C35.0133 36.6119 34.9517 38.0905 34.9312 39.6307C34.9106 42.2182 34.9517 42.4851 35.383 43.1217C35.9785 44.0253 37.3749 44.3539 38.6687 43.9021C39.9214 43.4709 40.0446 43.0807 40.0446 39.4664V36.3244L39.4696 35.6878C38.9767 35.1333 38.7097 35.0101 37.7651 34.9485C36.841 34.8664 36.533 34.928 35.9374 35.3387ZM37.8678 36.4476C38.0526 36.9405 38.0115 42.3414 37.8062 42.67C37.7035 42.8137 37.5187 42.8753 37.3955 42.8137C37.149 42.6494 37.0669 36.5092 37.3133 36.2628C37.5392 36.0369 37.724 36.0985 37.8678 36.4476Z" fill="#7327C8"/>
</svg>
